<?xml version="1.0" encoding="utf-8"?>
<svg width="137px" height="137px" viewBox="0 0 137 137" version="1.1" xmlns="http://www.w3.org/2000/svg">
  <title>PolyPrep-footer-logo</title>
  <desc>Created with Sketch.</desc>
  <g id="Symbols" stroke="none" stroke-width="1" fill="none" fill-rule="evenodd">
    <g id="desktop-footer-condensed" transform="translate(-271.000000, -267.000000)">
      <g id="footer-condensed">
        <g id="PolyPrep-footer-logo" transform="translate(271.000000, 267.000000)">
          <path d="M31.7611667,20.4260476 L32.0177698,20.6815635 C34.3190437,22.9763135 35.0111111,26.4306706 33.772131,29.4348849 L32.4439921,32.5037937 L65.0576032,18.3677857 C67.02725,17.5539405 69.2382778,17.5550278 71.2068373,18.3721349 L104.551659,32.5070556 L103.228413,29.4479325 C101.988889,26.4442619 102.680956,22.9899048 104.981687,20.6951548 L105.238833,20.4390952 C108.022325,17.6632143 112.129607,17.4419484 115.137627,19.2887302 C114.77773,19.0680079 114.402067,18.8630516 113.994329,18.6939762 L71.2204286,0.618130952 C69.2524127,-0.19843254 67.0402976,-0.200063492 65.0711944,0.613781746 L23.4210198,18.5390357 C26.1822222,17.5724246 29.4337976,18.1052024 31.7611667,20.4260476" id="Fill-1" fill="#306895"/>
          <path d="M136.385675,65.0744563 L118.43052,23.279127 C119.479766,26.0816468 118.967647,29.4245556 116.590262,31.7986786 L116.333659,32.0547381 C114.03456,34.3505754 110.578571,35.0355754 107.577619,33.7895278 L104.551659,32.5070556 L118.632214,65.0489048 C119.444429,67.0185516 119.44171,69.2306667 118.622972,71.1981389 L104.454345,104.563619 L107.535758,103.230587 C110.539429,101.991063 113.993786,102.683675 116.287992,104.984405 L116.544052,105.241008 C118.925242,107.629266 119.425401,110.989571 118.354409,113.795353 L136.376976,71.2231468 C137.195171,69.2556746 137.198433,67.0435595 136.385675,65.0744563" id="Fill-2" fill="#008CC1"/>
          <path d="M105.238833,20.4390952 L104.981687,20.6951548 C102.680956,22.9899048 101.988889,26.4442619 103.228413,29.4479325 L104.551659,32.5070556 L107.577619,33.7895278 C110.578571,35.0355754 114.03456,34.3505754 116.333659,32.0547381 L116.590262,31.7986786 C118.967647,29.4245556 119.479766,26.0816468 118.43052,23.279127 L118.338099,23.0638413 C118.335381,23.0584048 118.332663,23.0529683 118.330488,23.0475317 C117.64875,21.4057063 116.516869,20.1422619 115.158829,19.3023214 C115.152306,19.2979722 115.144694,19.293623 115.137627,19.2887302 C112.129607,17.4419484 108.022325,17.6632143 105.238833,20.4390952" id="Fill-3" fill="#005383"/>
          <path d="M18.7260516,113.97204 L18.403123,113.209298 C18.9315516,114.945175 20.047123,116.507083 21.6748135,117.567202 C20.4168056,116.731067 19.3702778,115.521444 18.7260516,113.97204" id="Fill-4" fill="#218EC2"/>
          <path d="M105.167615,116.573409 L104.911556,116.316262 C102.617349,114.015532 101.934524,110.559 103.182202,107.559135 L104.454345,104.563619 L71.9342421,118.634389 C69.9645952,119.447147 67.7524802,119.443885 65.7855516,118.62569 L32.524996,104.501643 L33.8177976,107.545544 C35.0654762,110.545952 34.3831944,114.00194 32.0884444,116.303214 L31.8323849,116.559817 C29.4386905,118.960036 26.0555516,119.463456 23.2372659,118.377786 L65.7605437,136.379694 C67.7280159,137.197889 69.9395873,137.201151 71.9092341,136.388393 L113.919306,118.340274 C114.012813,118.301675 114.097079,118.254377 114.187869,118.212516 C111.291298,119.523258 107.683087,119.095948 105.167615,116.573409" id="Fill-5" fill="#419FCC"/>
          <path d="M116.544052,105.241008 L116.287992,104.984405 C113.993786,102.683675 110.539429,101.991063 107.535758,103.230587 L104.454345,104.563619 L103.182202,107.559135 C101.934524,110.559 102.617349,114.015532 104.911556,116.316262 L105.167615,116.573409 C107.683087,119.095948 111.291298,119.523258 114.187869,118.212516 C114.235167,118.191313 114.280833,118.16848 114.327044,118.146734 C114.553202,118.039091 114.774468,117.921119 114.990298,117.792817 C115.043575,117.760742 115.096853,117.728667 115.149587,117.695504 C115.369222,117.557417 115.582877,117.407913 115.790008,117.247536 C115.822083,117.223071 115.854702,117.199151 115.886234,117.173599 C116.242869,116.888726 116.577214,116.569603 116.885464,116.218405 C116.915909,116.184155 116.94581,116.148817 116.97571,116.11348 C117.272544,115.763913 117.543282,115.383357 117.782488,114.972357 C117.80804,114.929409 117.831417,114.885373 117.855881,114.841881 C117.976571,114.626595 118.087476,114.402067 118.189683,114.171016 C118.245135,114.045433 118.30548,113.923111 118.354409,113.795353 C119.425401,110.989571 118.925242,107.629266 116.544052,105.241008" id="Fill-6" fill="#007EB9"/>
          <path d="M20.4102817,105.16979 L20.6668849,104.91373 C22.9681587,102.619524 26.4241468,101.937242 29.4245556,103.184921 L32.524996,104.501643 L18.3764841,71.1845476 C17.5582897,69.2170754 17.5550278,67.005504 18.3683294,65.0358571 L32.4439921,32.5037937 L29.4664167,33.7944206 C26.4632897,35.0355754 23.0083889,34.3456825 20.7125516,32.0460397 L20.4564921,31.7894365 C16.4111865,27.7376071 17.7811865,20.8756468 23.0725397,18.6885397 L23.4210198,18.5390357 C21.3714563,19.2555675 19.5920873,20.7962738 18.6619008,23.05025 L0.614325397,65.0608651 C-0.19843254,67.0305119 -0.195170635,69.2420833 0.622480159,71.2095556 L18.403123,113.209298 C17.5816667,110.511159 18.1655476,107.408544 20.4102817,105.16979" id="Fill-7" fill="#58B1D7"/>
          <path d="M20.4564921,31.7894365 L20.7125516,32.0460397 C23.0083889,34.3456825 26.4632897,35.0355754 29.4664167,33.7944206 L32.4439921,32.5037937 L33.772131,29.4348849 C35.0111111,26.4306706 34.3190437,22.9763135 32.0177698,20.6815635 L31.7611667,20.4260476 C29.4337976,18.1052024 26.1822222,17.5724246 23.4210198,18.5390357 L23.0725397,18.6885397 C17.7811865,20.8756468 16.4111865,27.7376071 20.4564921,31.7894365" id="Fill-8" fill="#005383"/>
          <path d="M31.8323849,116.559817 L32.0884444,116.303214 C34.3831944,114.00194 35.0654762,110.545952 33.8177976,107.545544 L32.524996,104.501643 L29.4245556,103.184921 C26.4241468,101.937242 22.9681587,102.619524 20.6668849,104.91373 L20.4102817,105.16979 C18.1655476,107.408544 17.5816667,110.511159 18.403123,113.209298 L18.7260516,113.97204 C19.3702778,115.521444 20.4168056,116.731067 21.6748135,117.567202 C21.8574802,117.686806 22.0417778,117.80369 22.2374921,117.909702 C22.3087103,117.948302 22.3793849,117.987444 22.4527778,118.024413 C22.491377,118.044528 22.5305198,118.063012 22.5696627,118.08204 C22.7882103,118.189683 23.0105635,118.290258 23.2372659,118.377786 C26.0555516,119.463456 29.4386905,118.960036 31.8323849,116.559817" id="Fill-9" fill="#007EB9"/>
        </g>
      </g>
    </g>
  </g>
  <text style="font-family: Roboto; font-size: 19px; font-weight: 700; white-space: pre;" x="28.258" y="87.306">SCHOOL</text>
  <text style="font-family: Roboto; font-size: 19px; font-weight: 700; white-space: pre;" x="28.194" y="64.612">ASGARD</text>
</svg>