<?xml version="1.0" encoding="UTF-8"?>
<svg width="626px" height="22px" viewBox="0 0 626 22" version="1.1" xmlns="http://www.w3.org/2000/svg" xmlns:xlink="http://www.w3.org/1999/xlink">
    <!-- Generator: Sketch 61.2 (89653) - https://sketch.com -->
    <title>arrow-pattern-green</title>
    <desc>Created with Sketch.</desc>
    <defs>
        <polygon id="path-1" points="0.0397738059 0.0833529412 35.7173138 0.0833529412 35.7173138 12.6211464 0.0397738059 12.6211464"></polygon>
        <polygon id="path-3" points="0.299270713 0.0833529412 35.9768107 0.0833529412 35.9768107 12.6211464 0.299270713 12.6211464"></polygon>
        <polygon id="path-5" points="0.187390867 0.0833529412 35.8650126 0.0833529412 35.8650126 12.6211464 0.187390867 12.6211464"></polygon>
        <polygon id="path-7" points="0.0757537535 0.0833529412 35.7532705 0.0833529412 35.7532705 12.6211464 0.0757537535 12.6211464"></polygon>
        <polygon id="path-9" points="0.331739379 0.0833529412 35.6452229 0.0833529412 35.6452229 12.6211464 0.331739379 12.6211464"></polygon>
        <polygon id="path-11" points="0.22352226 0.0833529412 35.9010623 0.0833529412 35.9010623 12.6211464 0.22352226 12.6211464"></polygon>
        <polygon id="path-13" points="5.29989295e-06 0.0833529412 35.677522 0.0833529412 35.677522 12.6211464 5.29989295e-06 12.6211464"></polygon>
        <polygon id="path-15" points="0.259410919 0.0833529412 35.9369509 0.0833529412 35.9369509 12.6211464 0.259410919 12.6211464"></polygon>
        <polygon id="path-17" points="0.147773806 0.0833529412 35.8253138 0.0833529412 35.8253138 12.6211464 0.147773806 12.6211464"></polygon>
        <polygon id="path-19" points="5.2998929e-06 0.0833529412 35.677522 0.0833529412 35.677522 12.6211464 5.2998929e-06 12.6211464"></polygon>
        <polygon id="path-21" points="5.2998929e-06 0.0833529412 35.677522 0.0833529412 35.677522 12.6211464 5.2998929e-06 12.6211464"></polygon>
        <polygon id="path-23" points="0.259373806 0.0833529412 35.9369138 0.0833529412 35.9369138 12.6211464 0.259373806 12.6211464"></polygon>
        <polygon id="path-25" points="0.147736693 0.0833529412 35.8252767 0.0833529412 35.8252767 12.6211464 0.147736693 12.6211464"></polygon>
    </defs>
    <g id="Design" stroke="none" stroke-width="1" fill="none" fill-rule="evenodd">
        <g id="PolySummer-Homepage" transform="translate(-587.000000, -5115.000000)">
            <g id="Our-Programs" transform="translate(260.000000, 5114.000000)">
                <g id="arrow-pattern-orange" transform="translate(327.000000, 0.000000)">
                    <g id="arrow-pattern">
                        <path d="M215.052986,22.7004339 L202.429762,17.3220601 C201.746737,17.0369847 200.979244,17.0362528 200.295854,17.3202303 L187.943146,22.7018977 C186.900768,23.1348171 185.701833,22.8943876 184.904849,22.0922242 L184.816012,22.0025664 C183.412097,20.5892657 183.887229,18.1952179 185.723679,17.4322112 L200.300223,11.1272508 C200.983613,10.8432733 201.75147,10.8436392 202.434495,11.1287146 L217.279736,17.4340409 C219.115093,18.1999752 219.587312,20.594755 218.181212,22.0058599 L218.092011,22.0951518 C217.293935,22.8962174 216.094272,23.1348171 215.052986,22.7004339" id="Fill-1" fill="#52B8E8"></path>
                        <g id="Group-5" transform="translate(203.000000, 0.914587)">
                            <mask id="mask-2" fill="white">
                                <use xlink:href="#path-1"></use>
                            </mask>
                            <g id="Clip-4"></g>
                            <path d="M4.06332371,0.307182353 L16.9309113,5.92662353 C17.6271588,6.22447647 18.4095093,6.22485882 19.1061278,5.92815294 L31.6979629,0.305652941 C32.7601485,-0.147052941 33.9826639,0.104535294 34.7950763,0.942652941 L34.885633,1.03632941 C36.3167258,2.51297647 35.8320247,5.01394706 33.9600247,5.81115294 L19.1016742,12.3990941 C18.4050557,12.6958 17.622334,12.6950353 16.9260866,12.3975647 L1.79309691,5.80924118 C-0.0777896907,5.00935882 -0.558779381,2.50724118 0.874540206,1.03288824 L0.965096907,0.939594118 C1.77899381,0.102623529 3.00150928,-0.146670588 4.06332371,0.307182353" id="Fill-3" fill="#52B8E8" mask="url(#mask-2)"></path>
                        </g>
                        <path d="M256.053224,22.7004339 L243.429636,17.3220601 C242.746975,17.0369847 241.979482,17.0362528 241.295729,17.3202303 L228.943021,22.7018977 C227.901007,23.1348171 226.702072,22.8943876 225.904724,22.0922242 L225.815887,22.0025664 C224.411971,20.5892657 224.887468,18.1952179 226.723917,17.4322112 L241.300462,11.1272508 C241.983851,10.8432733 242.751708,10.8436392 243.434734,11.1287146 L258.279974,17.4340409 C260.115331,18.1999752 260.587186,20.594755 259.181086,22.0058599 L259.092249,22.0951518 C258.294173,22.8962174 257.09451,23.1348171 256.053224,22.7004339" id="Fill-6" fill="#52B8E8"></path>
                        <g id="Group-10" transform="translate(244.000000, 0.914587)">
                            <mask id="mask-4" fill="white">
                                <use xlink:href="#path-3"></use>
                            </mask>
                            <g id="Clip-9"></g>
                            <path d="M4.32282062,0.307182353 L17.1904082,5.92662353 C17.8866557,6.22447647 18.6690062,6.22485882 19.3656247,5.92815294 L31.9574598,0.305652941 C33.0196454,-0.147052941 34.2421608,0.104535294 35.0545732,0.942652941 L35.1451299,1.03632941 C36.5762227,2.51297647 36.0915216,5.01394706 34.2195216,5.81115294 L19.3611711,12.3990941 C18.6641814,12.6958 17.8814598,12.6950353 17.1852124,12.3975647 L2.05259381,5.80924118 C0.181707216,5.00935882 -0.299282474,2.50724118 1.13403711,1.03288824 L1.22459381,0.939594118 C2.03849072,0.102623529 3.26100619,-0.146670588 4.32282062,0.307182353" id="Fill-8" fill="#52B8E8" mask="url(#mask-4)"></path>
                        </g>
                        <path d="M296.05286,22.7004339 L283.429636,17.3220601 C282.746611,17.0369847 281.979118,17.0362528 281.295729,17.3202303 L268.943021,22.7018977 C267.901007,23.1348171 266.701708,22.8943876 265.904724,22.0922242 L265.815887,22.0025664 C264.411971,20.5892657 264.887468,18.1952179 266.723917,17.4322112 L281.300098,11.1272508 C281.983851,10.8432733 282.751708,10.8436392 283.434369,11.1287146 L298.279974,17.4340409 C300.115331,18.1999752 300.587186,20.594755 299.181086,22.0058599 L299.092249,22.0951518 C298.293809,22.8962174 297.09451,23.1348171 296.05286,22.7004339" id="Fill-11" fill="#52B8E8"></path>
                        <g id="Group-15" transform="translate(285.000000, 0.914587)">
                            <mask id="mask-6" fill="white">
                                <use xlink:href="#path-5"></use>
                            </mask>
                            <g id="Clip-14"></g>
                            <path d="M4.21081237,0.307182353 L17.0784,5.92662353 C17.7746474,6.22447647 18.5569979,6.22485882 19.2539876,5.92815294 L31.8458227,0.305652941 C32.9080082,-0.147052941 34.1301526,0.104535294 34.9425649,0.942652941 L35.0334928,1.03632941 C36.4642144,2.51297647 35.9798845,5.01394706 34.1078845,5.81115294 L19.2491629,12.3990941 C18.5525443,12.6958 17.7698227,12.6950353 17.0735753,12.3975647 L1.9409567,5.80924118 C0.0700701031,5.00935882 -0.411290722,2.50724118 1.02202887,1.03288824 L1.1129567,0.939594118 C1.92648247,0.102623529 3.14936907,-0.146670588 4.21081237,0.307182353" id="Fill-13" fill="#52B8E8" mask="url(#mask-6)"></path>
                        </g>
                        <path d="M337.052952,22.7004339 L324.429691,17.3220601 C323.746664,17.0369847 322.979168,17.0362528 322.295777,17.3202303 L309.943032,22.7018977 C308.901015,23.1348171 307.701713,22.8943876 306.904726,22.0922242 L306.815889,22.0025664 C305.41197,20.5892657 305.887467,18.1952179 307.723922,17.4322112 L322.300146,11.1272508 C322.983537,10.8432733 323.751397,10.8436392 324.434424,11.1287146 L339.280072,17.4340409 C341.115071,18.1999752 341.587291,20.594755 340.181187,22.0058599 L340.09235,22.0951518 C339.293907,22.8962174 338.094605,23.1348171 337.052952,22.7004339" id="Fill-16" fill="#00D696"></path>
                        <g id="Group-20" transform="translate(326.000000, 0.914587)">
                            <mask id="mask-8" fill="white">
                                <use xlink:href="#path-7"></use>
                            </mask>
                            <g id="Clip-19"></g>
                            <path d="M4.09917526,0.307182353 L16.9667629,5.92662353 C17.6630103,6.22447647 18.4453608,6.22485882 19.1419794,5.92815294 L31.7338144,0.305652941 C32.7963711,-0.147052941 34.0185155,0.104535294 34.8309278,0.942652941 L34.9214845,1.03632941 C36.3525773,2.51297647 35.8682474,5.01394706 33.9958763,5.81115294 L19.1375258,12.3990941 C18.4409072,12.6958 17.6581856,12.6950353 16.9619381,12.3975647 L1.82931959,5.80924118 C-0.0415670103,5.00935882 -0.522927835,2.50724118 0.910391753,1.03288824 L1.00131959,0.939594118 C1.81484536,0.102623529 3.03773196,-0.146670588 4.09917526,0.307182353" id="Fill-18" fill="#52B8E8" mask="url(#mask-8)"></path>
                        </g>
                        <path d="M377.052986,22.7004339 L364.429762,17.3220601 C363.746737,17.0369847 362.979244,17.0362528 362.295854,17.3202303 L349.943146,22.7018977 C348.900768,23.1348171 347.701833,22.8943876 346.904849,22.0922242 L346.816012,22.0025664 C345.412097,20.5892657 345.887229,18.1952179 347.723679,17.4322112 L362.300223,11.1272508 C362.983613,10.8432733 363.75147,10.8436392 364.434495,11.1287146 L379.279736,17.4340409 C381.115093,18.1999752 381.587312,20.594755 380.181212,22.0058599 L380.092011,22.0951518 C379.293935,22.8962174 378.094272,23.1348171 377.052986,22.7004339" id="Fill-21" fill="#52B8E8"></path>
                        <g id="Group-25" transform="translate(366.000000, 0.914587)">
                            <mask id="mask-10" fill="white">
                                <use xlink:href="#path-9"></use>
                            </mask>
                            <g id="Clip-24"></g>
                            <path d="M4.31423265,0.307182353 L17.0505184,5.92662353 C17.7396612,6.22447647 18.5140286,6.22485882 19.2035388,5.92815294 L31.6668857,0.305652941 C32.7182327,-0.147052941 33.9282735,0.104535294 34.7323959,0.942652941 L34.8220286,1.03632941 C36.2385184,2.51297647 35.7587633,5.01394706 33.9058653,5.81115294 L19.1991306,12.3990941 C18.5096204,12.6958 17.7348857,12.6950353 17.0457429,12.3975647 L2.06717143,5.80924118 C0.21537551,5.00935882 -0.260706122,2.50724118 1.15798776,1.03288824 L1.24762041,0.939594118 C2.05321224,0.102623529 3.26325306,-0.146670588 4.31423265,0.307182353" id="Fill-23" fill="#52B8E8" mask="url(#mask-10)"></path>
                        </g>
                        <path d="M418.053153,22.7004339 L405.429958,17.3220601 C404.746934,17.0369847 403.979443,17.0362528 403.295691,17.3202303 L390.943012,22.7018977 C389.901,23.1348171 388.702068,22.8943876 387.904722,22.0922242 L387.815885,22.0025664 C386.411973,20.5892657 386.887468,18.1952179 388.723913,17.4322112 L403.300424,11.1272508 C403.983812,10.8432733 404.751668,10.8436392 405.434691,11.1287146 L420.279897,17.4340409 C422.11525,18.1999752 422.587105,20.594755 421.181372,22.0058599 L421.092171,22.0951518 C420.294097,22.8962174 419.094436,23.1348171 418.053153,22.7004339" id="Fill-26" fill="#52B8E8"></path>
                        <g id="Group-30" transform="translate(407.000000, 0.914587)">
                            <mask id="mask-12" fill="white">
                                <use xlink:href="#path-11"></use>
                            </mask>
                            <g id="Clip-29"></g>
                            <path d="M4.24707216,0.307182353 L17.1146598,5.92662353 C17.8109072,6.22447647 18.5932577,6.22485882 19.2898763,5.92815294 L31.8817113,0.305652941 C32.9438969,-0.147052941 34.1664124,0.104535294 34.9788247,0.942652941 L35.0693814,1.03632941 C36.5004742,2.51297647 36.0157732,5.01394706 34.1437732,5.81115294 L19.2854227,12.3990941 C18.588433,12.6958 17.8057113,12.6950353 17.1094639,12.3975647 L1.97684536,5.80924118 C0.105958763,5.00935882 -0.375030928,2.50724118 1.05828866,1.03288824 L1.14884536,0.939594118 C1.96274227,0.102623529 3.18525773,-0.146670588 4.24707216,0.307182353" id="Fill-28" fill="#52B8E8" mask="url(#mask-12)"></path>
                        </g>
                        <path d="M459.05286,22.7004339 L446.429636,17.3220601 C445.746611,17.0369847 444.979118,17.0362528 444.295729,17.3202303 L431.943021,22.7018977 C430.901007,23.1348171 429.701708,22.8943876 428.904724,22.0922242 L428.815887,22.0025664 C427.411971,20.5892657 427.887468,18.1952179 429.723917,17.4322112 L444.300098,11.1272508 C444.983851,10.8432733 445.751708,10.8436392 446.434369,11.1287146 L461.279974,17.4340409 C463.115331,18.1999752 463.587186,20.594755 462.181086,22.0058599 L462.092249,22.0951518 C461.293809,22.8962174 460.09451,23.1348171 459.05286,22.7004339" id="Fill-31" fill="#52B8E8"></path>
                        <path d="M451.135064,1.22176968 L464.002652,6.84121086 C464.698899,7.1390638 465.481249,7.13944616 466.178239,6.84274027 L478.770074,1.22024027 C479.83226,0.767534391 481.054404,1.01912263 481.866816,1.85724027 L481.957744,1.95091674 C483.388466,3.4275638 482.904136,5.92853439 481.032136,6.72574027 L466.173414,13.3136814 C465.476796,13.6103873 464.694074,13.6096226 463.997827,13.312152 L448.865208,6.72382851 C446.994322,5.92394616 446.512961,3.42182851 447.94628,1.94747557 L448.037208,1.85418145 C448.850734,1.01721086 450.073621,0.767916744 451.135064,1.22176968" id="Fill-33" fill="#00D696"></path>
                        <path d="M500.052952,22.7004339 L487.429691,17.3220601 C486.746664,17.0369847 485.979168,17.0362528 485.295777,17.3202303 L472.943032,22.7018977 C471.901015,23.1348171 470.701713,22.8943876 469.904726,22.0922242 L469.815889,22.0025664 C468.41197,20.5892657 468.887467,18.1952179 470.723922,17.4322112 L485.300146,11.1272508 C485.983537,10.8432733 486.751397,10.8436392 487.434424,11.1287146 L502.280072,17.4340409 C504.115071,18.1999752 504.587291,20.594755 503.181187,22.0058599 L503.09235,22.0951518 C502.293907,22.8962174 501.094605,23.1348171 500.052952,22.7004339" id="Fill-36" fill="#52B8E8"></path>
                        <g id="Group-40" transform="translate(489.000000, 0.914587)">
                            <mask id="mask-14" fill="white">
                                <use xlink:href="#path-13"></use>
                            </mask>
                            <g id="Clip-39"></g>
                            <path d="M4.0234268,0.307182353 L16.8910144,5.92662353 C17.5872619,6.22447647 18.3696124,6.22485882 19.0662309,5.92815294 L31.658066,0.305652941 C32.7206227,-0.147052941 33.942767,0.104535294 34.7551794,0.942652941 L34.8457361,1.03632941 C36.2768289,2.51297647 35.792499,5.01394706 33.9201278,5.81115294 L19.0617773,12.3990941 C18.3651588,12.6958 17.5824371,12.6950353 16.8861897,12.3975647 L1.75357113,5.80924118 C-0.117315464,5.00935882 -0.598676289,2.50724118 0.834643299,1.03288824 L0.925571134,0.939594118 C1.73909691,0.102623529 2.96198351,-0.146670588 4.0234268,0.307182353" id="Fill-38" fill="#52B8E8" mask="url(#mask-14)"></path>
                        </g>
                        <path d="M540.052986,22.7004339 L527.429762,17.3220601 C526.746737,17.0369847 525.979244,17.0362528 525.295854,17.3202303 L512.943146,22.7018977 C511.900768,23.1348171 510.701833,22.8943876 509.904849,22.0922242 L509.816012,22.0025664 C508.412097,20.5892657 508.887229,18.1952179 510.723679,17.4322112 L525.300223,11.1272508 C525.983613,10.8432733 526.75147,10.8436392 527.434495,11.1287146 L542.279736,17.4340409 C544.115093,18.1999752 544.587312,20.594755 543.181212,22.0058599 L543.092011,22.0951518 C542.293935,22.8962174 541.094272,23.1348171 540.052986,22.7004339" id="Fill-41" fill="#52B8E8"></path>
                        <g id="Group-45" transform="translate(529.000000, 0.914587)">
                            <mask id="mask-16" fill="white">
                                <use xlink:href="#path-15"></use>
                            </mask>
                            <g id="Clip-44"></g>
                            <path d="M4.28296082,0.307182353 L17.1505485,5.92662353 C17.8467959,6.22447647 18.6291464,6.22485882 19.3257649,5.92815294 L31.9176,0.305652941 C32.9797856,-0.147052941 34.202301,0.104535294 35.0147134,0.942652941 L35.1052701,1.03632941 C36.5363629,2.51297647 36.0516619,5.01394706 34.1796619,5.81115294 L19.3213113,12.3990941 C18.6246928,12.6958 17.8419711,12.6950353 17.1457237,12.3975647 L2.01273402,5.80924118 C0.141847423,5.00935882 -0.339142268,2.50724118 1.09417732,1.03288824 L1.18473402,0.939594118 C1.99863093,0.102623529 3.22114639,-0.146670588 4.28296082,0.307182353" id="Fill-43" fill="#52B8E8" mask="url(#mask-16)"></path>
                        </g>
                        <path d="M580.053153,22.7004339 L567.429958,17.3220601 C566.746934,17.0369847 565.979443,17.0362528 565.295691,17.3202303 L552.943012,22.7018977 C551.901,23.1348171 550.702068,22.8943876 549.904722,22.0922242 L549.815885,22.0025664 C548.411973,20.5892657 548.887468,18.1952179 550.723913,17.4322112 L565.300424,11.1272508 C565.983812,10.8432733 566.751668,10.8436392 567.434691,11.1287146 L582.279897,17.4340409 C584.11525,18.1999752 584.587105,20.594755 583.181372,22.0058599 L583.092171,22.0951518 C582.294097,22.8962174 581.094436,23.1348171 580.053153,22.7004339" id="Fill-46" fill="#52B8E8"></path>
                        <g id="Group-50" transform="translate(570.000000, 0.914587)">
                            <mask id="mask-18" fill="white">
                                <use xlink:href="#path-17"></use>
                            </mask>
                            <g id="Clip-49"></g>
                            <path d="M4.17132371,0.307182353 L17.0389113,5.92662353 C17.7351588,6.22447647 18.5175093,6.22485882 19.2141278,5.92815294 L31.8059629,0.305652941 C32.8681485,-0.147052941 34.0906639,0.104535294 34.9030763,0.942652941 L34.993633,1.03632941 C36.4247258,2.51297647 35.9400247,5.01394706 34.0680247,5.81115294 L19.2096742,12.3990941 C18.5126845,12.6958 17.7299629,12.6950353 17.0337155,12.3975647 L1.90109691,5.80924118 C0.0302103093,5.00935882 -0.450779381,2.50724118 0.982540206,1.03288824 L1.07309691,0.939594118 C1.88699381,0.102623529 3.10950928,-0.146670588 4.17132371,0.307182353" id="Fill-48" fill="#52B8E8" mask="url(#mask-18)"></path>
                        </g>
                        <path d="M622.05286,22.7004339 L609.429636,17.3220601 C608.746611,17.0369847 607.979118,17.0362528 607.295729,17.3202303 L594.943021,22.7018977 C593.901007,23.1348171 592.701708,22.8943876 591.904724,22.0922242 L591.815887,22.0025664 C590.411971,20.5892657 590.887468,18.1952179 592.723917,17.4322112 L607.300098,11.1272508 C607.983851,10.8432733 608.751708,10.8436392 609.434369,11.1287146 L624.279974,17.4340409 C626.115331,18.1999752 626.587186,20.594755 625.181086,22.0058599 L625.092249,22.0951518 C624.293809,22.8962174 623.09451,23.1348171 622.05286,22.7004339" id="Fill-51" fill="#00D696"></path>
                        <path d="M51.0529517,22.7004339 L38.4296907,17.3220601 C37.7466635,17.0369847 36.9791681,17.0362528 36.2957767,17.3202303 L23.9430325,22.7018977 C22.9010154,23.1348171 21.7017128,22.8943876 20.9047263,22.0922242 L20.8158891,22.0025664 C19.4119695,20.5892657 19.8874672,18.1952179 21.7239221,17.4322112 L36.3001458,11.1272508 C36.9835371,10.8432733 37.7513966,10.8436392 38.4344239,11.1287146 L53.280072,17.4340409 C55.1150705,18.1999752 55.5872914,20.594755 54.1811873,22.0058599 L54.0923501,22.0951518 C53.2939073,22.8962174 52.0946046,23.1348171 51.0529517,22.7004339" id="Fill-53" fill="#00D696"></path>
                        <g id="Group-57" transform="translate(41.000000, 0.914587)">
                            <mask id="mask-20" fill="white">
                                <use xlink:href="#path-19"></use>
                            </mask>
                            <g id="Clip-56"></g>
                            <path d="M4.0234268,0.307182353 L16.8910144,5.92662353 C17.5872619,6.22447647 18.3696124,6.22485882 19.0662309,5.92815294 L31.658066,0.305652941 C32.7206227,-0.147052941 33.942767,0.104535294 34.7551794,0.942652941 L34.8457361,1.03632941 C36.2768289,2.51297647 35.792499,5.01394706 33.9201278,5.81115294 L19.0617773,12.3990941 C18.3651588,12.6958 17.5824371,12.6950353 16.8861897,12.3975647 L1.75357113,5.80924118 C-0.117315464,5.00935882 -0.598676289,2.50724118 0.834643299,1.03288824 L0.925571134,0.939594118 C1.73909691,0.102623529 2.96198351,-0.146670588 4.0234268,0.307182353" id="Fill-55" fill="#52B8E8" mask="url(#mask-20)"></path>
                        </g>
                        <g id="Group-60" transform="translate(0.000000, 0.914587)">
                            <mask id="mask-22" fill="white">
                                <use xlink:href="#path-21"></use>
                            </mask>
                            <g id="Clip-59"></g>
                            <path d="M4.0234268,0.307182353 L16.8910144,5.92662353 C17.5872619,6.22447647 18.3696124,6.22485882 19.0662309,5.92815294 L31.658066,0.305652941 C32.7206227,-0.147052941 33.942767,0.104535294 34.7551794,0.942652941 L34.8457361,1.03632941 C36.2768289,2.51297647 35.792499,5.01394706 33.9201278,5.81115294 L19.0617773,12.3990941 C18.3651588,12.6958 17.5824371,12.6950353 16.8861897,12.3975647 L1.75357113,5.80924118 C-0.117315464,5.00935882 -0.598676289,2.50724118 0.834643299,1.03288824 L0.925571134,0.939594118 C1.73909691,0.102623529 2.96198351,-0.146670588 4.0234268,0.307182353" id="Fill-58" fill="#52B8E8" mask="url(#mask-22)"></path>
                        </g>
                        <path d="M92.0529859,22.7004339 L79.4297621,17.3220601 C78.7467369,17.0369847 77.9792437,17.0362528 77.2958544,17.3202303 L64.9431464,22.7018977 C63.9007684,23.1348171 62.7018333,22.8943876 61.9048492,22.0922242 L61.8160122,22.0025664 C60.4120968,20.5892657 60.887229,18.1952179 62.7236785,17.4322112 L77.3002234,11.1272508 C77.9836127,10.8432733 78.75147,10.8436392 79.4344952,11.1287146 L94.2797355,17.4340409 C96.1150928,18.1999752 96.5873122,20.594755 95.1812123,22.0058599 L95.0920113,22.0951518 C94.2939349,22.8962174 93.0942717,23.1348171 92.0529859,22.7004339" id="Fill-61" fill="#52B8E8"></path>
                        <g id="Group-65" transform="translate(81.000000, 0.914587)">
                            <mask id="mask-24" fill="white">
                                <use xlink:href="#path-23"></use>
                            </mask>
                            <g id="Clip-64"></g>
                            <path d="M4.28292371,0.307182353 L17.1505113,5.92662353 C17.8467588,6.22447647 18.6291093,6.22485882 19.3257278,5.92815294 L31.9175629,0.305652941 C32.9797485,-0.147052941 34.2022639,0.104535294 35.0146763,0.942652941 L35.105233,1.03632941 C36.5363258,2.51297647 36.0516247,5.01394706 34.1796247,5.81115294 L19.3212742,12.3990941 C18.6246557,12.6958 17.841934,12.6950353 17.1456866,12.3975647 L2.01269691,5.80924118 C0.141810309,5.00935882 -0.339179381,2.50724118 1.09414021,1.03288824 L1.18469691,0.939594118 C1.99859381,0.102623529 3.22110928,-0.146670588 4.28292371,0.307182353" id="Fill-63" fill="#52B8E8" mask="url(#mask-24)"></path>
                        </g>
                        <path d="M132.053153,22.7004339 L119.429958,17.3220601 C118.746934,17.0369847 117.979443,17.0362528 117.295691,17.3202303 L104.943012,22.7018977 C103.901,23.1348171 102.702068,22.8943876 101.904722,22.0922242 L101.815885,22.0025664 C100.411973,20.5892657 100.887468,18.1952179 102.723913,17.4322112 L117.300424,11.1272508 C117.983812,10.8432733 118.751668,10.8436392 119.434691,11.1287146 L134.279897,17.4340409 C136.11525,18.1999752 136.587105,20.594755 135.181372,22.0058599 L135.092171,22.0951518 C134.294097,22.8962174 133.094436,23.1348171 132.053153,22.7004339" id="Fill-66" fill="#52B8E8"></path>
                        <g id="Group-70" transform="translate(123.000000, 0.914587)">
                            <mask id="mask-26" fill="white">
                                <use xlink:href="#path-25"></use>
                            </mask>
                            <g id="Clip-69"></g>
                            <path d="M4.1712866,0.307182353 L17.0388742,5.92662353 C17.7351216,6.22447647 18.5174722,6.22485882 19.2140907,5.92815294 L31.8059258,0.305652941 C32.8681113,-0.147052941 34.0906268,0.104535294 34.9030392,0.942652941 L34.9935959,1.03632941 C36.4246887,2.51297647 35.9399876,5.01394706 34.0679876,5.81115294 L19.2096371,12.3990941 C18.5126474,12.6958 17.7299258,12.6950353 17.0336784,12.3975647 L1.90105979,5.80924118 C0.0301731959,5.00935882 -0.450816495,2.50724118 0.982503093,1.03288824 L1.07305979,0.939594118 C1.8869567,0.102623529 3.10947216,-0.146670588 4.1712866,0.307182353" id="Fill-68" fill="#52B8E8" mask="url(#mask-26)"></path>
                        </g>
                        <path d="M174.05286,22.7004339 L161.429636,17.3220601 C160.746611,17.0369847 159.979118,17.0362528 159.295729,17.3202303 L146.943021,22.7018977 C145.901007,23.1348171 144.701708,22.8943876 143.904724,22.0922242 L143.815887,22.0025664 C142.411971,20.5892657 142.887468,18.1952179 144.723917,17.4322112 L159.300098,11.1272508 C159.983851,10.8432733 160.751708,10.8436392 161.434369,11.1287146 L176.279974,17.4340409 C178.115331,18.1999752 178.587186,20.594755 177.181086,22.0058599 L177.092249,22.0951518 C176.293809,22.8962174 175.09451,23.1348171 174.05286,22.7004339" id="Fill-71" fill="#52B8E8"></path>
                        <path d="M166.059315,1.22176968 L178.926903,6.84121086 C179.623151,7.1390638 180.405501,7.13944616 181.102491,6.84274027 L193.694326,1.22024027 C194.756511,0.767534391 195.978656,1.01912263 196.791068,1.85724027 L196.881996,1.95091674 C198.313089,3.4275638 197.828388,5.92853439 195.956388,6.72574027 L181.097666,13.3136814 C180.401047,13.6103873 179.618326,13.6096226 178.922078,13.312152 L163.78946,6.72382851 C161.918573,5.92394616 161.437212,3.42182851 162.870532,1.94747557 L162.96146,1.85418145 C163.774986,1.01721086 164.997872,0.767916744 166.059315,1.22176968" id="Fill-73" fill="#00D696"></path>
                    </g>
                </g>
            </g>
        </g>
    </g>
</svg>