<?xml version="1.0" encoding="UTF-8"?>
<!-- Generator: Adobe Illustrator 24.0.3, SVG Export Plug-In . SVG Version: 6.00 Build 0)  -->
<svg version="1.1" id="Layer_1" xmlns="http://www.w3.org/2000/svg" xmlns:xlink="http://www.w3.org/1999/xlink" x="0px" y="0px" viewBox="0 0 1877 1877" style="enable-background:new 0 0 1877 1877;" xml:space="preserve">
<style type="text/css">
	.st0{opacity:8.000000e-02;fill-rule:evenodd;clip-rule:evenodd;fill:url(#Fill-1_2_);}
	.st1{opacity:8.000000e-02;fill-rule:evenodd;clip-rule:evenodd;fill:url(#Fill-1_3_);}
</style>
<title>Group 18</title>
<desc>Created with Sketch.</desc>
<linearGradient id="Fill-1_2_" gradientUnits="userSpaceOnUse" x1="926.0067" y1="952.4933" x2="926.0067" y2="951.4933" gradientTransform="matrix(1876.9999 0 0 -1876.9999 -1737175.875 1787829.875)">
	<stop offset="0" style="stop-color:#9ADAF3"/>
	<stop offset="1" style="stop-color:#61B3E4"/>
</linearGradient>
<path id="Fill-1" class="st0" d="M1868.9,980.7l-1,2.3l-105.2,254.1l-68.8,166.1l-66,159.5c-0.6,1.5-1.2,3-1.9,4.5  c-11.5,26.3-32.7,47.4-59.1,58.9c-1.2,0.5-2.4,1-3.7,1.5l-160,66.3h0l-166.1,68.8l-255,105.7c-0.3,0.1-0.6,0.3-0.9,0.3  c-27.4,11-58.1,11-85.4,0c-0.3-0.1-0.6-0.2-0.9-0.3l-255-105.7L473.8,1694l-160-66.3c-1.3-0.5-2.5-1-3.7-1.5  c-26-11.3-46.9-32-58.6-57.8c0-0.1-0.1-0.3-0.2-0.4l-2-4.7c-0.1-0.2-0.1-0.3-0.2-0.5l-66-159.5l-68.8-166.1L9,983l-1-2.3  C-2.8,953.5-2.7,923,8.2,895.9c0.1-0.4,0.3-0.8,0.4-1.1l105.6-254.9l68.8-166.1l66.1-159.6c0.7-1.9,1.5-3.7,2.3-5.6  c11.5-25.3,31.8-45.7,57.1-57.2c0,0,0.1,0,0.1,0l5.1-2.1c0.3-0.1,0.6-0.2,0.9-0.3l159.2-65.9l166.1-68.8L894,9l2.3-1  c0.2-0.1,0.4-0.2,0.7-0.3C923.9-2.7,953.9-2.6,980.7,8l2.3,1l254.1,105.2l166.1,68.8l159.2,65.9c0.3,0.1,0.6,0.2,0.9,0.3l5.1,2.1  c0,0,0.1,0.1,0.1,0c25.9,11.8,46.6,32.9,57.9,59.1c0.6,1.2,1,2.4,1.5,3.7l66.1,159.6l68.8,166.1l105.6,254.9  c0.2,0.3,0.3,0.7,0.4,1.1C1879.7,923,1879.8,953.5,1868.9,980.7"/>
<linearGradient id="Fill-1_3_" gradientUnits="userSpaceOnUse" x1="925.8692" y1="952.6308" x2="925.8692" y2="951.6308" gradientTransform="matrix(1468 0 0 -1468 -1358237 1398667)">
	<stop offset="0" style="stop-color:#9ADAF3"/>
	<stop offset="1" style="stop-color:#61B3E4"/>
</linearGradient>
<path id="Fill-1_1_" class="st1" d="M1666.7,972l-0.8,1.8l-82.3,198.8l-53.8,129.9l-51.6,124.7c-0.5,1.2-1,2.4-1.5,3.5  c-9,20.6-25.6,37.1-46.2,46.1c-0.9,0.4-1.9,0.8-2.9,1.2l-125.1,51.8h0l-129.9,53.8l-199.4,82.6c-0.2,0.1-0.5,0.2-0.7,0.3  c-21.4,8.6-45.4,8.6-66.8,0c-0.2-0.1-0.5-0.2-0.7-0.3l-199.4-82.6l-129.9-53.8L450.4,1478c-1-0.4-1.9-0.8-2.9-1.2  c-20.3-8.8-36.7-25-45.8-45.2c0-0.1-0.1-0.2-0.1-0.3l-1.5-3.7c0-0.1-0.1-0.3-0.2-0.4l-51.6-124.7l-53.8-129.9l-82.3-198.8l-0.8-1.8  c-8.5-21.3-8.4-45.1,0.1-66.3c0.1-0.3,0.2-0.6,0.3-0.9l82.6-199.4l53.8-129.9l51.7-124.8c0.6-1.5,1.2-2.9,1.8-4.3  c9-19.8,24.9-35.7,44.6-44.7c0,0,0.1,0,0.1,0l4-1.7c0.2-0.1,0.5-0.2,0.7-0.3l124.5-51.5l129.9-53.8L904.2,212l1.8-0.8  c0.2-0.1,0.3-0.1,0.6-0.2c21-8.2,44.5-8.1,65.5,0.2l1.8,0.8l198.7,82.3l129.9,53.8l124.5,51.5c0.2,0.1,0.5,0.2,0.7,0.3l4,1.7  c0,0,0,0,0.1,0c20.2,9.2,36.5,25.7,45.3,46.2c0.4,0.9,0.8,1.9,1.2,2.9l51.7,124.8l53.8,129.9l82.6,199.4c0.1,0.3,0.2,0.6,0.3,0.9  C1675.1,926.9,1675.2,950.8,1666.7,972"/>
</svg>