<?xml version="1.0" encoding="UTF-8" standalone="no"?> <svg id="Layer_1" data-name="Layer 1" xmlns="http://www.w3.org/2000/svg" viewBox="0 0 64 64"><path d="M14.88,20.21a41.17,41.17,0,0,0,6.46,2.36,1.17,1.17,0,0,0,.27,0,1,1,0,0,0,.7-.3,1,1,0,0,0,.26-1,41.17,41.17,0,0,0-2.36-6.46,10,10,0,1,0-5.33,5.33ZM5.34,5.34A8,8,0,0,1,18.19,14.5a1,1,0,0,0,.06,1,25.43,25.43,0,0,1,1.86,4.63,25.43,25.43,0,0,1-4.63-1.86,1,1,0,0,0-.54-.16,1,1,0,0,0-.44.1A8,8,0,0,1,5.34,5.34Z"/><rect x="6" y="10" width="2" height="2"/><rect x="10" y="10" width="2" height="2"/><rect x="14" y="10" width="2" height="2"/><path d="M54.29,1a1,1,0,0,0-.89.16A1,1,0,0,0,53,2V8.6a1.07,1.07,0,0,1-.82,1.09,1,1,0,0,1-1.18-1V2a1,1,0,0,0-.4-.8A1,1,0,0,0,49.71,1,8,8,0,0,0,49,16.12v7.2L39.81,27H28a9,9,0,0,0-9,9v6a1,1,0,0,0,1,1h3V56a1,1,0,0,0,1,1H40a1,1,0,0,0,1-1V43h1a1,1,0,0,0,1-1V33.55l6-3.75v.91a3,3,0,1,0,6,0V16.11A8,8,0,0,0,54.29,1ZM39,55H33V43h6ZM49,27.45l-7.53,4.7A1,1,0,0,0,41,33v8H27v2h4V55H25V34H23v7H21V36a7,7,0,0,1,7-7H40a.94.94,0,0,0,.37-.07L49,25.48Zm4.71-13a1,1,0,0,0-.71,1v15.3a1,1,0,1,1-2,0V15.4a1,1,0,0,0-.72-1,6,6,0,0,1-4.17-4.57A6.05,6.05,0,0,1,49,3.51v5.2A3,3,0,0,0,50.06,11a3,3,0,0,0,2.44.68A3.09,3.09,0,0,0,55,8.6V3.51a6,6,0,0,1-1.29,10.94Z"/><path d="M31,26a7,7,0,1,0-7-7A7,7,0,0,0,31,26Zm0-12a5,5,0,1,1-5,5A5,5,0,0,1,31,14Z"/><path d="M4,48a4,4,0,1,0,4-4A4,4,0,0,0,4,48Zm6,0a2,2,0,1,1-2-2A2,2,0,0,1,10,48Z"/><path d="M14,63a1,1,0,0,0,1-1V58a5,5,0,0,0-5-5H6a5,5,0,0,0-5,5v4a1,1,0,0,0,1,1ZM3,58a3,3,0,0,1,3-3h4a3,3,0,0,1,3,3v3H3Z"/><path d="M52,48a4,4,0,1,0,4-4A4,4,0,0,0,52,48Zm6,0a2,2,0,1,1-2-2A2,2,0,0,1,58,48Z"/><path d="M58,53H54a5,5,0,0,0-5,5v4a1,1,0,0,0,1,1H62a1,1,0,0,0,1-1V58A5,5,0,0,0,58,53Zm3,8H51V58a3,3,0,0,1,3-3h4a3,3,0,0,1,3,3Z"/></svg>