<?xml version="1.0" encoding="UTF-8" standalone="no"?> <svg width="512" height="512" viewBox="0 0 512 512" fill="none" xmlns="http://www.w3.org/2000/svg">
<path d="M496 200H464C461.878 200 459.843 200.843 458.343 202.343C456.843 203.843 456 205.878 456 208V216H424V204C423.995 198.697 421.886 193.613 418.136 189.864C414.387 186.114 409.303 184.005 404 184H204C198.697 184.005 193.613 186.114 189.864 189.864C186.114 193.613 184.005 198.697 184 204V216H168V196C167.992 188.576 165.039 181.459 159.79 176.21C154.541 170.961 147.424 168.008 140 168H100C92.5765 168.008 85.4593 170.961 80.2101 176.21C74.9608 181.459 72.0082 188.576 72 196V216H56V112C56 109.878 55.1571 107.843 53.6569 106.343C52.1566 104.843 50.1217 104 48 104H16C13.8783 104 11.8434 104.843 10.3431 106.343C8.84285 107.843 8 109.878 8 112V400C8 402.122 8.84285 404.157 10.3431 405.657C11.8434 407.157 13.8783 408 16 408H48C50.1217 408 52.1566 407.157 53.6569 405.657C55.1571 404.157 56 402.122 56 400V368H184V376C184.008 382.363 186.54 388.462 191.039 392.961C195.538 397.46 201.637 399.992 208 400H400C406.363 399.992 412.462 397.46 416.961 392.961C421.46 388.462 423.992 382.363 424 376V368H456V400C456 402.122 456.843 404.157 458.343 405.657C459.843 407.157 461.878 408 464 408H496C498.122 408 500.157 407.157 501.657 405.657C503.157 404.157 504 402.122 504 400V208C504 205.878 503.157 203.843 501.657 202.343C500.157 200.843 498.122 200 496 200ZM40 392H24V120H40V392ZM88 196C88.0026 192.818 89.2678 189.768 91.5176 187.518C93.7675 185.268 96.8182 184.003 100 184H140C143.182 184.003 146.232 185.268 148.482 187.518C150.732 189.768 151.997 192.818 152 196V216H88V196ZM184 352H56V232H184V352ZM408 376C407.997 378.121 407.153 380.154 405.654 381.654C404.154 383.153 402.121 383.997 400 384H208C205.879 383.997 203.846 383.153 202.346 381.654C200.847 380.154 200.003 378.121 200 376V360H408V376ZM408 344H200V204C200 202.939 200.421 201.922 201.172 201.172C201.922 200.421 202.939 200 204 200H404C405.061 200 406.078 200.421 406.828 201.172C407.579 201.922 408 202.939 408 204V344ZM456 352H424V232H456V352ZM488 392H472V216H488V392Z" fill="black"/>
</svg>
