<?xml version="1.0" encoding="UTF-8" standalone="no"?> <svg id="Building" xmlns="http://www.w3.org/2000/svg" viewBox="0 0 64 64"><path d="M55,27H43a1,1,0,0,0-1,1V39a1,1,0,0,0,1,1H55a1,1,0,0,0,1-1V28A1,1,0,0,0,55,27ZM44,29h4v6H44Zm10,9H44V37H54Zm0-3H50V29h4ZM38,27H26a1,1,0,0,0-1,1V39a1,1,0,0,0,1,1H38a1,1,0,0,0,1-1V28A1,1,0,0,0,38,27ZM27,29h4v6H27Zm10,9H27V37H37Zm0-3H33V29h4ZM62,7V3a1,1,0,0,0-1-1H3A1,1,0,0,0,2,3V7A1,1,0,0,0,3,8H4V56H3a1,1,0,0,0-1,1v4a1,1,0,0,0,1,1H61a1,1,0,0,0,1-1V57a1,1,0,0,0-1-1V8A1,1,0,0,0,62,7ZM22.22,60H4V58H22.72Zm2.06,0,.5-2H39.22l.5,2ZM25,56V45h6V56Zm8,0V45h6V56Zm7-13H24a1,1,0,0,0-1,1V56H6V8H59V56H41V44A1,1,0,0,0,40,43ZM60,60H41.78l-.5-2H60ZM60,6H4V4H60ZM21,27H9a1,1,0,0,0-1,1V39a1,1,0,0,0,1,1H21a1,1,0,0,0,1-1V28A1,1,0,0,0,21,27ZM10,29h4v6H10Zm10,9H10V37H20Zm0-3H16V29h4ZM55,10H43a1,1,0,0,0-1,1V22a1,1,0,0,0,1,1H55a1,1,0,0,0,1-1V11A1,1,0,0,0,55,10ZM44,12h4v6H44Zm10,9H44V20H54Zm0-3H50V12h4ZM38,10H26a1,1,0,0,0-1,1V22a1,1,0,0,0,1,1H38a1,1,0,0,0,1-1V11A1,1,0,0,0,38,10ZM27,12h4v6H27Zm10,9H27V20H37Zm0-3H33V12h4ZM21,10H9a1,1,0,0,0-1,1V22a1,1,0,0,0,1,1H21a1,1,0,0,0,1-1V11A1,1,0,0,0,21,10ZM10,12h4v6H10Zm10,9H10V20H20Zm0-3H16V12h4Z"/></svg>