<?xml version="1.0" ?><svg data-name="Layer 1" id="Layer_1" viewBox="0 0 80 80" xmlns="http://www.w3.org/2000/svg"><title/><path d="M13.94,71H14v5.29A2.72,2.72,0,0,0,16.71,79h6.58A2.72,2.72,0,0,0,26,76.29V71H54v5.29A2.72,2.72,0,0,0,56.71,79h6.58A2.72,2.72,0,0,0,66,76.29V71h.06A4,4,0,0,0,70,67.06V8.35A7.36,7.36,0,0,0,62.65,1H17.35A7.36,7.36,0,0,0,10,8.35V67.06A4,4,0,0,0,13.94,71ZM24,76.29a.71.71,0,0,1-.71.71H16.71a.71.71,0,0,1-.71-.71V71h8Zm40,0a.71.71,0,0,1-.71.71H56.71a.71.71,0,0,1-.71-.71V71h8ZM12,8.35A5.36,5.36,0,0,1,17.35,3h45.3A5.36,5.36,0,0,1,68,8.35V14H12ZM12,16H68V39H12Zm0,25H68V67.06A1.94,1.94,0,0,1,66.06,69H13.94A1.94,1.94,0,0,1,12,67.06Zm7,21a5,5,0,1,0-5-5A5,5,0,0,0,19,62Zm0-8a3,3,0,1,1-3,3A3,3,0,0,1,19,54Zm42,8a5,5,0,1,0-5-5A5,5,0,0,0,61,62Zm0-8a3,3,0,1,1-3,3A3,3,0,0,1,61,54ZM30,57a1,1,0,0,1,1-1H49a1,1,0,0,1,0,2H31A1,1,0,0,1,30,57Z"/></svg>